<?xml version="1.0" standalone="no"?><!DOCTYPE svg PUBLIC "-//W3C//DTD SVG 1.1//EN" "http://www.w3.org/Graphics/SVG/1.1/DTD/svg11.dtd">
<svg class="icon" width="200px" height="200.00px" viewBox="0 0 1024 1024" version="1.1" xmlns="http://www.w3.org/2000/svg">
<defs>
    <linearGradient id="gradient" x1="0%" y1="0%" x2="0%" y2="100%">
        <stop offset="0%" stop-color="#e8feff"/>
        <stop offset="100%" stop-color="#0088ff"/>
    </linearGradient>
</defs>
<path fill="url(#gradient)" d="M370.62656 491.69408c-0.03584 75.32544 61.0048 136.41728 136.33024 136.45312s136.41728-61.0048 136.45312-136.33024v-0.12288c0.00512-75.32544-61.056-136.3968-136.38144-136.3968-75.32544-0.00512-136.3968 61.056-136.3968 136.38144-0.00512 0.00512-0.00512 0.01024-0.00512 0.01536z"  /><path fill="url(#gradient)" d="M921.52832 267.45344c-0.4864-12.77952-8.41216-24.2688-20.38784-28.95872-382.96064-152.7296-382.96064-152.7296-389.10976-152.7296-4.0448 0-8.25344 0.80896-11.97056 2.26304L122.92608 238.4896c-11.97056 4.68992-19.90144 16.1792-20.38784 28.95872-0.4864 12.94336-9.70752 317.11232 55.33184 442.17856 67.14368 128.9472 332.16 222.9504 343.48544 226.83136 3.39968 1.29536 7.1168 1.78176 10.68032 1.78176 3.5584 0 7.28064-0.64512 10.68032-1.78176 11.32544-3.88096 276.34176-97.88416 343.3216-226.83136 65.19808-125.06112 55.81312-429.23008 55.49056-442.17344z m-250.12736 444.60032L618.496 659.1488a199.455744 199.455744 0 0 1-111.31392 33.81248c-110.82752 0-201.10848-90.28096-201.10848-201.10848s90.28096-201.10848 201.10848-201.10848 201.10848 90.28096 201.10848 201.10848c0 46.43328-16.01536 88.9856-42.38848 123.12576l51.45088 51.45088-45.952 45.62432z"  /></svg>