<?xml version="1.0" standalone="no"?><!DOCTYPE svg PUBLIC "-//W3C//DTD SVG 1.1//EN" "http://www.w3.org/Graphics/SVG/1.1/DTD/svg11.dtd">
<svg class="icon" width="200px" height="200.00px" viewBox="0 0 1024 1024" version="1.1" xmlns="http://www.w3.org/2000/svg">
<defs>
    <linearGradient id="gradient" x1="0%" y1="0%" x2="0%" y2="100%">
        <stop offset="0%" stop-color="#e8feff"/>
        <stop offset="100%" stop-color="#0088ff"/>
    </linearGradient>
</defs>
<path fill="url(#gradient)" d="M869.973333 632.917333l10.112 6.058667a42.666667 42.666667 0 0 1 0 73.173333l-343.722666 206.250667a42.666667 42.666667 0 0 1-43.904 0l-343.722667-206.250667a42.666667 42.666667 0 0 1 0-73.173333l10.154667-6.058667 355.541333 213.333334 355.541333-213.333334z m0-170.666666l10.112 6.058666a42.666667 42.666667 0 0 1 0 73.173334l-343.722666 206.250666a42.666667 42.666667 0 0 1-43.904 0l-343.722667-206.250666a42.666667 42.666667 0 0 1 0-73.173334l10.154667-6.058666 355.541333 213.333333 355.541333-213.333333zM536.32 91.434667l343.722667 206.208a42.666667 42.666667 0 0 1 0 73.173333l-343.722667 206.250667a42.666667 42.666667 0 0 1-43.904 0L148.736 370.816a42.666667 42.666667 0 0 1 0-73.173333l343.722667-206.208a42.666667 42.666667 0 0 1 43.904 0z" /></svg>