<?xml version="1.0" standalone="no"?><!DOCTYPE svg PUBLIC "-//W3C//DTD SVG 1.1//EN" "http://www.w3.org/Graphics/SVG/1.1/DTD/svg11.dtd">
<svg class="icon" width="200px" height="200.00px" viewBox="0 0 1024 1024" version="1.1" xmlns="http://www.w3.org/2000/svg">
<defs>
    <linearGradient id="gradient" x1="0%" y1="0%" x2="0%" y2="100%">
        <stop offset="0%" stop-color="#e8feff"/>
        <stop offset="100%" stop-color="#0088ff"/>
    </linearGradient>
</defs>
<path fill="url(#gradient)" d="M901.60128 122.34752a114.567168 114.567168 0 0 1 34.07872 82.06848v615.12192c-0.11776 64.09728-52.04992 116.02944-116.14208 116.1472H204.46208c-64.11776-0.06144-116.08576-52.02432-116.14208-116.1472V204.4672c0.03072-64.13312 52.01408-116.11648 116.14208-116.1472h615.07072a115.004416 115.004416 0 0 1 82.06848 34.02752zM378.62912 564.57728c0.512-13.60896-4.1984-26.9056-13.16352-37.15584-8.76032-9.71264-21.87264-14.4384-39.49568-14.4384a56.746496 56.746496 0 0 0-41.24672 14.3872c-10.0096 9.5488-14.07488 23.76192-10.61888 37.15584v133.39648a49.652736 49.652736 0 0 0 14.97088 36.73088 50.358784 50.358784 0 0 0 37.15584 15.02208c13.83424 0.41472 27.19744-5.0432 36.7872-15.02208a53.925376 53.925376 0 0 0 15.39584-36.73088v-133.34528h0.21504z m179.57888-238.49984c0.47616-28.22656-22.02112-51.49696-50.2528-51.97312-0.64512-0.01024-1.28512-0.01024-1.93024 0.00512-13.824-0.42496-27.1872 5.01248-36.7872 14.97088a54.39744 54.39744 0 0 0-15.39072 36.7872v371.89632a54.57408 54.57408 0 0 0 15.39072 36.736 49.160704 49.160704 0 0 0 36.7872 15.02208c13.9264 0.32768 27.37152-5.10464 37.15584-15.02208a49.708032 49.708032 0 0 0 14.97088-36.73088l0.05632-371.69152z m185.78944 180.48a49.165824 49.165824 0 0 0-18.0992-37.15584 59.951104 59.951104 0 0 0-39.7056-14.81216 47.279616 47.279616 0 0 0-36.30592 14.54592 41.717248 41.717248 0 0 0-9.97888 37.15584v191.41632a49.722368 49.722368 0 0 0 15.02208 36.73088 50.366976 50.366976 0 0 0 37.15584 15.02208c13.83424 0.41472 27.19744-5.0432 36.7872-15.02208a54.222336 54.222336 0 0 0 15.39584-36.73088V506.55744h-0.27136z" /></svg>