<?xml version="1.0" encoding="utf-8"?>
<!-- Generator: Adobe Illustrator 23.1.0, SVG Export Plug-In . SVG Version: 6.00 Build 0)  -->
<svg version="1.1" id="图层_1" xmlns="http://www.w3.org/2000/svg" xmlns:xlink="http://www.w3.org/1999/xlink" x="0px" y="0px"
	 viewBox="0 0 566.93 566.93" style="enable-background:new 0 0 566.93 566.93;fill: #356491" xml:space="preserve">
<g>
	<path d="M493.23,242.41c0.43-15.33-5.63-21.9-20.66-19.79c-14.51,2.04-23.43-3.52-28.3-17.61c-2.58-7.46-6.78-14.94-12.06-20.76
		c-10.65-11.74-11.05-22.77-1.39-34.93c8.83-11.1,6.66-18.89-6.23-25.82c-25.12-13.5-49.71-27.99-74.2-42.61
		c-9.65-5.76-18.01-8.02-22.65,4.69c-6.71,18.41-18.89,23.83-37.37,18.98c-5.45-1.43-11.99-1.33-17.41,0.24
		c-16.46,4.77-26.37-1.34-32.23-16.63c-5.29-13.83-13.6-14.01-25.49-6.7c-23.67,14.55-47.7,28.59-72.26,41.56
		c-14.13,7.46-15.6,15.84-6.23,27.44c9.43,11.67,8.16,22.15-1.74,33.01c-4.34,4.76-7.8,10.83-10.04,16.9
		c-5.99,16.18-15.47,25.42-34.19,22.39c-14.21-2.3-17.14,6.75-17.02,18.73c0.29,27.8,0.54,55.61-0.1,83.39
		c-0.33,14.26,5.41,20.65,19.41,18.99c15.15-1.8,24.97,3.6,29.98,18.61c2.26,6.78,6.3,13.45,11.04,18.84
		c10.81,12.3,11.8,24.06,1.33,36.92c-9.82,12.08-3.76,18.85,7.86,25.19c24.38,13.31,48.22,27.64,72.3,41.5
		c3.78,2.18,7.72,4.1,10.55,5.59c7.86,0.98,10.69-4.09,12.34-8.57c7.45-20.25,21.36-25.66,41.25-19.74
		c3.33,0.99,7.53,0.81,10.87-0.27c17.74-5.73,29.52-0.01,36.14,17.35c4.93,12.93,12.64,13.18,23.86,6.29
		c23.67-14.54,47.59-28.81,72.27-41.53c15.2-7.84,16.68-16.45,6.83-28.86c-8.66-10.92-7.5-20.76,1.46-31.22
		c5.15-6.01,9.41-13.28,12.25-20.68c5.35-13.95,13.53-21.71,29.47-19.45c15.18,2.16,20.78-5.17,20.35-20.26
		C492.47,296.55,492.47,269.45,493.23,242.41z M459.95,272.87c-0.62,8.73-0.27,17.53-0.34,26.3c-0.05,6.77-2.83,12.19-10.11,11.33
		c-19.4-2.3-24.55,10.56-29.49,25.18c-6.16,18.21-16.43,34.24-29.66,48.2c-6.92,7.3-9.29,14.78-2.58,23.27
		c9.65,12.2,4.53,19.33-7.72,24.9c-6.62,3.01-12.95,6.84-18.99,10.93c-9.11,6.17-16.24,5.81-20.89-5.08
		c-5.39-12.63-14.18-13.38-26.75-10.77c-20.83,4.33-42.21,3.86-63.19-0.48c-8.49-1.76-16.5-3.05-20.44,6.63
		c-7.37,18.12-18.15,14.8-30.63,5.95c-5.35-3.79-11.08-7.19-17.02-9.95c-9.95-4.63-10.67-11.2-4.54-19.09
		c9.3-11.99,4.5-20.97-4.62-30.44c-11.24-11.67-19.66-25.53-25.18-40.79c-5.55-15.35-9.53-31.28-31.68-28.7
		c-7.74,0.9-8.82-6.2-8.94-12.31c-0.18-9.5,0.12-19.01-0.18-28.5c-0.31-9.8,3.56-15.89,13.88-14.93
		c14.87,1.39,20.44-7.17,24.31-19.57c6.18-19.83,17.32-36.99,31.11-52.42c5.71-6.39,10.27-13.13,3.87-21.28
		c-10.96-13.97-5.01-21.72,8.79-28.09c9.22-4.26,17.76-9.98,25.33-14.31c6.01-0.14,8.72,2.82,9.94,6.08
		c6.34,16.95,18.71,16.94,33.62,13.78c15.76-3.34,31.86-3.73,47.9-0.55c15.32,3.04,30.38,5.93,37.51-14.16
		c2.63-7.41,8.99-5.65,14.62-2.3c7.54,4.48,14.95,9.24,22.8,13.11c10.96,5.4,16.53,11.91,7.51,23.47
		c-7.26,9.31-4.45,17.11,2.92,25.14c15.03,16.36,26,35.3,32.67,56.51c3.03,9.62,8.5,15.07,18.98,14.27
		C456.45,253.16,460.85,260.24,459.95,272.87z"/>
	<path d="M281.85,178.63c-58,0.8-103.78,47.61-103.34,105.68c0.43,57.43,48.12,104.49,105.43,104.06
		c57.63-0.43,104.45-47.53,104.42-105.05C388.33,224.45,340.89,177.82,281.85,178.63z M284.07,356.4
		c-39.81,0.44-72.27-32.01-72.62-72.59c-0.35-40.34,31.71-73.67,71.38-74.22c39.29-0.55,72.39,32.73,72.59,72.99
		C355.63,323.36,324.13,355.96,284.07,356.4z"/>
</g>
</svg>
